<?xml version="1.0" encoding="utf-8"?>
<!-- Generator: Adobe Illustrator 18.1.1, SVG Export Plug-In . SVG Version: 6.00 Build 0)  -->
<!DOCTYPE svg PUBLIC "-//W3C//DTD SVG 1.1//EN" "http://www.w3.org/Graphics/SVG/1.1/DTD/svg11.dtd">
<svg version="1.1" id="Layer_2" xmlns="http://www.w3.org/2000/svg" xmlns:xlink="http://www.w3.org/1999/xlink" x="0px" y="0px"
	 viewBox="-181.4 -98.7 763.7 605.1" enable-background="new -181.4 -98.7 763.7 605.1" xml:space="preserve">
<path fill="#2FC877" d="M197.5,45.2l5.9,11.7c-17.6,8.8-20.6,23.5-14.7,35.2c11.7,26.4,44.1,26.4,55.8,26.4
	c11.7,2.9,14.7,11.7,5.9,14.7s-26.4,2.9-38.2,0l2.9,23.5c11.7,2.9,23.5,5.9,32.3,2.9l5.9,11.7l17.6-2.9l-5.9-11.7
	c14.7-5.9,26.4-17.6,17.6-35.2c-8.8-23.5-38.2-26.4-55.8-29.4c-8.8-2.9-11.7-11.7,0-14.7l0,0c8.8-2.9,20.6,0,29.4,0
	c0,0-2.9-17.6-2.9-23.5c-11.7,0-17.6,0-26.4,0L221,42.3L197.5,45.2z M279.8,206.8c-55.8,14.7-123.4-23.5-146.9-82.2
	C109.4,68.7,135.8,15.9,191.7,7s117.5,26.4,141,82.2C353.2,145.1,329.7,195,279.8,206.8z M-110.9,51.1
	C-102.1,74.6,9.5,327.2,9.5,327.2C177,180.3,417.8,315.5,579.4,177.4L461.9-98.7C265.1,36.4,47.7-110.4-110.9,51.1z M582.3,306.6
	C365,438.8,188.7,259.6-37.4,506.4l-143.9-334.8l44.1-49.9l120.4,282l0,0c237.9-188,355.4-38.2,575.7-152.7
	C570.6,274.3,579.4,297.8,582.3,306.6z"/>
</svg>
