<?xml version="1.0" encoding="utf-8"?>
<!-- Generator: Adobe Illustrator 18.1.1, SVG Export Plug-In . SVG Version: 6.00 Build 0)  -->
<!DOCTYPE svg PUBLIC "-//W3C//DTD SVG 1.1//EN" "http://www.w3.org/Graphics/SVG/1.1/DTD/svg11.dtd">
<svg version="1.1" id="Layer_2" xmlns="http://www.w3.org/2000/svg" xmlns:xlink="http://www.w3.org/1999/xlink" x="0px" y="0px"
	 viewBox="73 94.5 265 193.3" enable-background="new 73 94.5 265 193.3" xml:space="preserve">
<path fill="#2FC877" d="M307,154.2v100.3c0,5.9-4.6,10.8-10.5,10.8h-182c-5.9,0-10.5-4.7-10.5-10.5V154.2l101.4,72.5L307,154.2z
	 M306.3,124.4c-1.4-4.3-5.5-7.3-10-7.3H114.6c-4.6,0-8.7,2.9-10,7.3c-1.4,4.3,0.3,9,3.9,11.7l90.7,64.9c3.7,2.6,8.7,2.6,12.3,0
	l90.7-64.9C306.1,133.4,307.6,128.7,306.3,124.4z"/>
</svg>
