<?xml version="1.0" encoding="utf-8"?>
<!-- Generator: Adobe Illustrator 18.1.1, SVG Export Plug-In . SVG Version: 6.00 Build 0)  -->
<!DOCTYPE svg PUBLIC "-//W3C//DTD SVG 1.1//EN" "http://www.w3.org/Graphics/SVG/1.1/DTD/svg11.dtd">
<svg version="1.1" id="Layer_1" xmlns="http://www.w3.org/2000/svg" xmlns:xlink="http://www.w3.org/1999/xlink" x="0px" y="0px"
	 viewBox="0 0 25 24.6" enable-background="new 0 0 25 24.6" xml:space="preserve">
<g>
	<path fill="#FFFFFF" d="M20.1,0.4c0.6,0,1.1,0,1.7,0c0,1.1,0,2.1,0,3.3c1.1,0,2.2,0,3.3,0c0,0.6,0,1.1,0,1.7c-1.1,0-2.1,0-3.2,0
		c0,1.1,0,2.2,0,3.3c-0.6,0-1.1,0-1.7,0c0-1.1,0-2.1,0-3.3c-1.1,0-2.2,0-3.3,0c0-0.6,0-1.1,0-1.7c1.1,0,2.1,0,3.3,0
		C20.1,2.6,20.1,1.5,20.1,0.4z"/>
	<path fill="#FFFFFF" d="M15.5,0.1c-0.9,1.1-1.6,2.1-3.2,1.7c0.9,0.8,1.5,1.7,1.7,2.8c0.4,2-0.2,3.6-1.7,4.9c-0.3,0.3-0.7,0.6-1,0.9
		c-0.9,0.9-0.9,1.6,0,2.5c0.4,0.4,0.9,0.8,1.4,1.2c0.6,0.5,1.2,1,1.7,1.5c2.1,2.2,1.8,5.5-0.6,7.3c-1.3,1-2.7,1.5-4.3,1.6
		C7.2,24.8,5,24.6,3,23.7c-1.4-0.6-2.5-1.5-2.9-3.1c-0.4-1.8,0.4-3.7,2-4.8c1.3-0.9,2.8-1.2,4.4-1.4c0.6-0.1,1.2-0.1,1.9-0.1
		c-0.9-1-1.1-2-0.6-3.2c-0.6-0.1-1.1-0.1-1.6-0.2C3.7,10.5,2,8.9,1.7,6.6C1.4,4,2.5,1.7,4.9,0.8c1-0.4,2.1-0.7,3.2-0.7
		c2.4-0.1,4.7,0,7.1,0C15.3,0,15.3,0,15.5,0.1z M7.8,23.4c0.9-0.2,1.9-0.3,2.8-0.6c1.4-0.5,2.4-1.4,2.6-3c0.2-1.6-0.6-2.8-1.8-3.6
		C9.2,14.8,6,15,4.1,16.6c-1.8,1.6-1.8,4,0.1,5.5C5.2,23,6.5,23.3,7.8,23.4z M11.3,6.7c0-0.4,0-0.6-0.1-0.9
		c-0.3-1.7-0.9-3.1-2.3-4.1C7.3,0.7,5.5,1.2,4.7,3C4.5,3.5,4.4,4,4.3,4.6c-0.2,2.3,1.1,4.5,3,5.2c1.8,0.7,3.5-0.2,3.8-2.1
		C11.2,7.4,11.2,7,11.3,6.7z"/>
</g>
</svg>
