<?xml version="1.0" encoding="utf-8"?>
<!-- Generator: Adobe Illustrator 18.1.1, SVG Export Plug-In . SVG Version: 6.00 Build 0)  -->
<!DOCTYPE svg PUBLIC "-//W3C//DTD SVG 1.1//EN" "http://www.w3.org/Graphics/SVG/1.1/DTD/svg11.dtd">
<svg version="1.1" id="Layer_1" xmlns="http://www.w3.org/2000/svg" xmlns:xlink="http://www.w3.org/1999/xlink" x="0px" y="0px"
	 viewBox="0 0 160 160" enable-background="new 0 0 160 160" xml:space="preserve">
<path id="Blue_1_" fill="#2FC877" d="M151.2,160c4.9,0,8.8-4,8.8-8.8V8.8c0-4.9-4-8.8-8.8-8.8H8.8C4,0,0,4,0,8.8v142.3
	c0,4.9,4,8.8,8.8,8.8H151.2z"/>
<g>
	<g>
		<path fill="#FFFFFF" d="M99,113.5c0.5-0.1,1.1-0.2,1.6-0.3c0.2,0,0.4-0.1,0.6-0.1c6.1-1.4,11.1-4.1,15.1-8
			c6.3-6.2,9.4-15,9.4-26.4c0-10.6-3-18.8-9-24.4s-14.5-8.4-25.5-8.4H67.5v0.2v68.4h22.1h0.1c1,0,2,0,2.9-0.1c0.1,0,0.3,0,0.4,0
			c1.1-0.1,2.1-0.2,3.1-0.3c0.4-0.1,0.9-0.1,1.3-0.2C97.9,113.6,98.5,113.5,99,113.5z M90.2,99.1H86V60.7h5.4
			c5.1,0,8.8,1.5,11.3,4.5c2.5,3,3.7,7.7,3.7,14c0,6.7-1.3,11.7-3.9,15C99.9,97.4,95.8,99.1,90.2,99.1z"/>
	</g>
	<polygon fill="#FFFFFF" points="38.7,114.3 57.3,114.3 57.3,114.2 57.3,45.9 38.7,45.9 	"/>
</g>
</svg>
