<?xml version="1.0" encoding="utf-8"?>
<!-- Generator: Adobe Illustrator 18.1.1, SVG Export Plug-In . SVG Version: 6.00 Build 0)  -->
<!DOCTYPE svg PUBLIC "-//W3C//DTD SVG 1.1//EN" "http://www.w3.org/Graphics/SVG/1.1/DTD/svg11.dtd">
<svg version="1.1" id="Layer_1" xmlns="http://www.w3.org/2000/svg" xmlns:xlink="http://www.w3.org/1999/xlink" x="0px" y="0px"
	 viewBox="0 0 33.2 28.6" enable-background="new 0 0 33.2 28.6" xml:space="preserve">
<g>
	<g>
		<path fill="#FFFFFF" d="M16.2,4.6c-1.3-1.3-3.7-2.4-5.7-2.7c-0.4-0.1-0.9-0.1-1.4-0.1C6.5,1.8,3.3,2.8,3,4.4L0.6,21.1
			c-0.3,1.9,3.3,3.7,6.5,4.2c0.4,0.1,0.9,0.1,1.4,0.1c2.9,0,5.9-1.2,6.2-2.8l0.9-6.4L17,6.4C17.1,5.8,16.8,5.2,16.2,4.6z M9.7,8.2
			c-1.2,0-2.2-1-2.2-2.2c0-1.2,1-2.2,2.2-2.2c1.2,0,2.2,1,2.2,2.2C11.8,7.2,10.9,8.2,9.7,8.2z"/>
	</g>
	<g>
		<path fill="#FFFFFF" d="M32.6,21.6L30.2,5.4c-0.3-1.9-4.7-2.9-7.5-2.4c-1,0.2-2.2,0.5-3.3,1.1c0.1,0.1,0.2,0.2,0.2,0.3
			c0.7,1,0.8,1.9,0.7,2.4l-2.1,14.5l0.4,3c0.3,1.9,4.3,2.6,7.5,2.2C29.4,25.9,32.9,23.5,32.6,21.6z M23.8,9.4c-1.2,0-2.3-1-2.3-2.3
			c0-1.2,1-2.3,2.3-2.3c1.2,0,2.3,1,2.3,2.3C26.1,8.4,25,9.4,23.8,9.4z"/>
	</g>
</g>
</svg>
