<?xml version="1.0" encoding="utf-8"?>
<!-- Generator: Adobe Illustrator 18.1.1, SVG Export Plug-In . SVG Version: 6.00 Build 0)  -->
<!DOCTYPE svg PUBLIC "-//W3C//DTD SVG 1.1//EN" "http://www.w3.org/Graphics/SVG/1.1/DTD/svg11.dtd">
<svg version="1.1" id="Layer_1" xmlns="http://www.w3.org/2000/svg" xmlns:xlink="http://www.w3.org/1999/xlink" x="0px" y="0px"
	 viewBox="-171 181 40 40" enable-background="new -171 181 40 40" xml:space="preserve">
<path fill="#32A1E1" d="M-151,181c-11.1,0-20,8.9-20,20s8.9,20,20,20s20-8.9,20-20S-139.9,181-151,181z M-151,187c3.3,0,6,2.7,6,6
	c0,3.3-2.7,6-6,6s-6-2.7-6-6C-157,189.7-154.3,187-151,187z M-151,215.4c-5,0-9.4-2.6-12-6.4c0.1-4,8-6.2,12-6.2s11.9,2.2,12,6.2
	C-141.6,212.8-146,215.4-151,215.4z"/>
<path fill="none" d="M-175,177h48v48h-48V177z"/>
</svg>
